<?xml version="1.0" standalone="no"?><!DOCTYPE svg PUBLIC "-//W3C//DTD SVG 1.1//EN" "http://www.w3.org/Graphics/SVG/1.1/DTD/svg11.dtd"><svg t="1574301361748" class="icon" viewBox="0 0 1024 1024" version="1.1" xmlns="http://www.w3.org/2000/svg" p-id="2221" xmlns:xlink="http://www.w3.org/1999/xlink" width="200" height="200"><defs><style type="text/css"></style></defs><path d="M736 480a32 32 0 1 1 0 64H288a32 32 0 1 1 0-64h448z m-224 448c229.376 0 416-186.624 416-416S741.376 96 512 96 96 282.624 96 512s186.624 416 416 416z m0-896c264.672 0 480 215.328 480 480s-215.328 480-480 480S32 776.672 32 512 247.328 32 512 32z" p-id="2222" fill="#ffffff"></path></svg>