<?xml version="1.0" standalone="no"?><!DOCTYPE svg PUBLIC "-//W3C//DTD SVG 1.1//EN" "http://www.w3.org/Graphics/SVG/1.1/DTD/svg11.dtd"><svg t="1574303856856" class="icon" viewBox="0 0 1024 1024" version="1.1" xmlns="http://www.w3.org/2000/svg" p-id="10644" xmlns:xlink="http://www.w3.org/1999/xlink" width="200" height="200"><defs><style type="text/css"></style></defs><path d="M800.7 907H135.2c-23.1 0-43.5-9.3-56.1-25.6-11.2-14.5-14.9-33.3-10.1-51.5l98.6-376.4c8.9-34 45-59.6 83.9-59.6H917c23.1 0 43.5 9.3 56.1 25.6 11.2 14.5 14.9 33.3 10.1 51.5l-98.6 376.4c-8.9 34-45 59.6-83.9 59.6z m-662.4-69h662.4c8.6 0 15.9-5.8 17.2-8.3l96-366.7H251.5c-8.6 0-15.9 5.8-17.2 8.3l-96 366.7z" p-id="10645" fill="#1296db"></path><path d="M807.2 908.5H144.6c-43.6 0-79.1-35.5-79.1-79.1V195.6c0-43.6 35.5-79.1 79.1-79.1h128.1c18.9 0 37.2 6.8 51.5 19.1l78.6 67.3h404.4c43.6 0 79.1 35.5 79.1 79.1v117.7c0 19.9-16.1 36-36 36s-36-16.1-36-36V282c0-3.8-3.3-7.1-7.1-7.1H389.5c-8.6 0-16.9-3.1-23.4-8.7l-88.7-76c-1.3-1.1-2.9-1.7-4.6-1.7H144.6c-3.9 0-7.1 3.2-7.1 7.1v633.8c0 3.8 3.3 7.1 7.1 7.1h662.6c19.9 0 36 16.1 36 36s-16.2 36-36 36z" p-id="10646" fill="#1296db"></path></svg>